<?xml version="1.0" encoding="UTF-8"?>
<svg width="85px" height="86px" viewBox="0 0 85 86" version="1.1" xmlns="http://www.w3.org/2000/svg" xmlns:xlink="http://www.w3.org/1999/xlink">
    <!-- Generator: Sketch 43.2 (39069) - http://www.bohemiancoding.com/sketch -->
    <title>logo</title>
    <desc>Created with Sketch.</desc>
    <defs></defs>
    <g id="Page-1" stroke="none" stroke-width="1" fill="none" fill-rule="evenodd">
        <path d="M23.210522,4.6194601 C28.999471,1.66573225 35.5552092,0 42.5,0 C47.2533321,0 51.8244062,0.780338731 56.0921053,2.21989892 L56.0921053,19.0526316 L39.2368421,19.0526316 L39.2368421,25.4078947 L54.5263158,25.4078947 C49.3684211,41.0657895 42.1842105,53.5921053 33.0657895,62.9868421 L36.8421053,69.25 C44.5789474,60.0394737 50.9342105,47.7894737 56.0921053,32.5921053 L56.0921053,82.7801011 C51.8244062,84.2196613 47.2533321,85 42.5,85 C35.5552092,85 28.999471,83.3342678 23.210522,80.3805399 L23.2105263,37.0131579 C26.3421053,40.6973684 30.0263158,45.7631579 34.3552632,52.1184211 L38.2236842,46.3157895 C33.0657895,40.5131579 28.0921053,35.3552632 23.2105263,30.75 L23.2105263,25.4078947 L35.7368421,25.4078947 L35.7368421,19.0526316 L23.2105263,19.0526316 L23.2105263,4.61945791 Z M16.4868421,8.88844134 C12.8141267,11.7350287 9.62057676,15.1702615 7.04770045,19.0526316 L16.4868421,19.0526316 L16.4868421,8.88844134 Z M3.57674442,25.4078947 L16.2105263,25.4078947 C13.140295,36.1537044 8.3327612,45.7149897 1.64168473,54.2379908 C0.572605416,50.5098207 0,46.5717799 0,42.5 C0,36.4199414 1.27673976,30.6380814 3.57674442,25.4078947 Z M4.36738937,61.2872464 C9.36883745,53.9272747 13.3855159,45.7976475 16.4868421,36.8289474 L16.4868421,76.1115587 C11.4044314,72.172368 7.23961456,67.1059314 4.36738937,61.2872464 Z M62.7236912,5.11089048 C68.8719373,8.44348681 74.1057609,13.2483546 77.9522995,19.0526316 L62.7236842,19.0526316 L62.7236842,5.11088668 Z M81.4232556,25.4078947 C83.7232602,30.6380814 85,36.4199414 85,42.5 C85,48.3760731 83.8074922,53.973621 81.6512856,59.0638348 C74.293404,49.8441476 68.5061333,38.6255009 64.2894737,25.4078947 L81.4232556,25.4078947 Z M78.2231083,65.5335269 C74.3530215,71.5233546 69.0174685,76.4776294 62.7236912,79.8891095 L62.7236842,32.4078947 C67.0064075,45.5855048 72.1728822,56.6273821 78.2231083,65.5335269 Z" id="lin" fill="#000000"></path>
    </g>
</svg>