<?xml version="1.0" standalone="no"?>
<!DOCTYPE svg PUBLIC "-//W3C//DTD SVG 20010904//EN"
 "http://www.w3.org/TR/2001/REC-SVG-20010904/DTD/svg10.dtd">
<svg version="1.0" xmlns="http://www.w3.org/2000/svg"
 width="86.000000pt" height="86.000000pt" viewBox="0 0 86.000000 86.000000"
 preserveAspectRatio="xMidYMid meet">
<metadata>
Created by potrace 1.11, written by Peter Selinger 2001-2013
</metadata>
<g transform="translate(0.000000,86.000000) scale(0.100000,-0.100000)"
fill="#000000" stroke="none">
<path d="M330 846 c-86 -24 -89 -28 -89 -106 l0 -70 65 0 64 0 0 -30 c0 -32 0
-32 -75 -34 -44 -1 -50 -4 -53 -24 -3 -17 16 -42 74 -102 l77 -79 -20 -31 -19
-31 -50 70 c-27 39 -52 70 -55 71 -3 0 -7 -94 -7 -210 -1 -237 -8 -217 85
-245 48 -14 192 -15 226 0 16 7 17 28 16 254 -1 135 -4 237 -9 226 -4 -11 -11
-31 -15 -45 -17 -52 -107 -217 -138 -253 l-32 -38 -17 31 c-17 30 -17 31 15
68 63 70 153 235 172 314 l7 27 -58 -3 c-81 -4 -93 0 -92 35 l1 29 84 0 83 0
0 84 c0 71 -3 85 -17 91 -33 13 -178 13 -223 1z"/>
<path d="M639 773 c-2 -53 -1 -95 4 -99 3 -3 37 -4 76 -2 l71 3 -33 35 c-41
44 -96 90 -108 90 -5 0 -10 -12 -10 -27z"/>
<path d="M145 742 c-11 -10 -31 -30 -44 -45 l-24 -27 49 0 50 0 0 45 c0 50 -2
52 -31 27z"/>
<path d="M32 570 c-16 -37 -24 -174 -13 -225 l6 -30 34 48 c35 51 94 174 104
217 6 25 5 26 -55 26 -60 0 -61 0 -76 -36z"/>
<path d="M660 591 c0 -27 77 -190 122 -259 l42 -65 15 34 c21 47 20 221 -2
269 l-15 35 -81 1 c-68 1 -81 -2 -81 -15z"/>
<path d="M640 500 c-5 -48 -2 -421 3 -426 12 -13 99 60 132 109 14 23 13 27
-19 82 -19 31 -49 92 -66 134 -46 113 -48 118 -50 101z"/>
<path d="M163 463 c-13 -41 -77 -170 -94 -192 -19 -23 -19 -24 19 -76 20 -30
49 -62 62 -73 l25 -20 0 189 c0 104 -1 189 -3 189 -1 0 -5 -8 -9 -17z"/>
</g>
</svg>
